<?xml version="1.0" encoding="utf-8"?>
<!-- Generator: Adobe Illustrator 19.1.0, SVG Export Plug-In . SVG Version: 6.00 Build 0)  -->
<svg version="1.1" id="Layer_1" xmlns="http://www.w3.org/2000/svg" xmlns:xlink="http://www.w3.org/1999/xlink" x="0px" y="0px"
	 viewBox="0 322.2 612 149.8" style="enable-background:new 0 322.2 612 149.8;" xml:space="preserve">
<style type="text/css">
	.st0{fill:#FFFFFF;}
	.st1{fill:none;stroke:#FFFFFF;stroke-width:2;stroke-linecap:round;}
	.st2{fill:#FFFFFF;stroke:#FFFFFF;stroke-width:0.5;}
	.st3{fill:#FFFFFF;stroke:#FFFFFF;stroke-width:0.5;stroke-linejoin:round;}
	.st4{fill:#FFFFFF;stroke:#FFFFFF;stroke-linecap:round;}
</style>
<g id="Layer_1_2_">
	<g id="Layer_1_1_">
		<g id="stateuniversity">
			<path class="st0" d="M224.9,443.5c0.8,0.6,2.7,1.3,4.7,1.3c1.8,0,3.4-1,3.4-3.1c0-1.6-1-2.4-2.9-3.4l-2.1-1
				c-2.1-1.3-3.7-2.9-3.7-5.8c0-4,3.1-6.1,7.1-6.1c2.4,0,4,0.6,4.7,0.8l-0.3,3.4c-1-0.3-2.4-1-4.3-1c-2.1,0-3.1,1-3.1,2.7
				c0,1.6,1,2.4,2.4,2.9l2.4,1.3c2.7,1.6,4,2.9,4,6.1c0,4.4-3.1,6.6-7.4,6.6c-2.1,0-4-0.3-5-1L224.9,443.5z"/>
			<polygon class="st0" points="244.4,428.7 239.6,428.7 239.6,425.6 253.6,425.6 253.6,428.7 248.6,428.7 248.6,447.7 244.4,447.7 
							"/>
			<path class="st0" d="M267.6,442.4h-7.7l-1.6,5.3h-3.9l7.4-22.4h4.4l7.1,22.4H269L267.6,442.4z M266.8,439.2l-2.9-10.3l0,0
				l-3.1,10.3H266.8z"/>
			<polygon class="st0" points="278.6,428.7 273.6,428.7 273.6,425.6 287.6,425.6 287.6,428.7 282.6,428.7 282.6,447.7 278.6,447.7 
							"/>
			<polygon class="st0" points="291.6,425.6 303.2,425.6 303.2,428.7 295.5,428.7 295.5,434.8 302.6,434.8 302.6,438 295.5,438 
				295.5,444.5 303.4,444.5 303.4,447.7 291.6,447.7 			"/>
			<path class="st0" d="M326.9,425.6v14.5c0,3.7,1,5,3.4,5s3.4-1.3,3.4-5v-14.5h4v14.5c0,5.8-3.4,8.1-7.7,8.1s-7.7-2.4-7.7-8.1
				v-14.5H326.9z"/>
			<polygon class="st0" points="343.5,425.6 348.2,425.6 355.6,442.9 355.6,442.9 355.6,425.6 359.3,425.6 359.3,447.7 354.6,447.7 
				347.2,430.6 347.2,430.6 347.2,447.7 343.5,447.7 			"/>
			<rect x="365.4" y="425.6" class="st0" width="4" height="22.4"/>
			<polygon class="st0" points="373.8,425.6 378,425.6 382.5,442.7 382.8,442.7 387.2,425.6 391.5,425.6 384.6,447.7 380.4,447.7 
							"/>
			<polygon class="st0" points="395.2,425.6 407,425.6 407,428.7 399.3,428.7 399.3,434.8 406.5,434.8 406.5,438 399.3,438 
				399.3,444.5 407.3,444.5 407.3,447.7 395.2,447.7 			"/>
			<path class="st0" d="M412.6,425.6h6.8c4,0,6.6,1.8,6.6,5.8c0,2.9-1.8,4.7-4.3,5.3l0,0c0.8,0,1.8,0.6,2.4,2.7l2.9,8.4h-4.3
				l-2.1-7.4c-0.6-1.8-1.6-2.4-3.1-2.4h-1v9.5h-4v-21.9H412.6z M418.4,435.3c2.1,0,3.7-1,3.7-3.4c0-2.7-1.3-3.1-3.7-3.1h-1.6v6.6
				L418.4,435.3L418.4,435.3z"/>
			<path class="st0" d="M432.1,443.5c0.8,0.6,2.7,1.3,4.7,1.3c1.8,0,3.4-1,3.4-3.1c0-1.6-1-2.4-2.9-3.4l-2.1-1
				c-2.1-1.3-3.7-2.9-3.7-5.8c0-4,3.1-6.1,7.1-6.1c2.4,0,4,0.6,4.7,0.8l-0.3,3.4c-1-0.3-2.4-1-4.3-1c-2.1,0-3.1,1-3.1,2.7
				c0,1.6,1,2.4,2.4,2.9l2.4,1.3c2.7,1.6,4,2.9,4,6.1c0,4.4-3.1,6.6-7.4,6.6c-2.1,0-4-0.3-5-1L432.1,443.5z"/>
			<rect x="449.4" y="425.6" class="st0" width="4" height="22.4"/>
			<polygon class="st0" points="463.2,428.7 458.1,428.7 458.1,425.6 472.2,425.6 472.2,428.7 467.4,428.7 467.4,447.7 463.2,447.7 
							"/>
			<polygon class="st0" points="481.3,439 475,425.6 479.3,425.6 483.7,434.5 487.7,425.6 492.1,425.6 485.6,439 485.6,447.7 
				481.3,447.7 			"/>
		</g>
		<g id="bridgewater">
			<path class="st0" d="M132,351.9c0-4-0.2-6-4.9-6h-2.4v-1.3c1.8,0,6.6-0.3,8.4-0.6c3.7-0.3,8.7-0.3,10-0.3
				c5.8,0,11.1,0.8,13.4,2.7c2.7,1.8,4,4.3,4,7.4c0,4-3.1,7.4-7.7,8.1v0.3c6.3,1.8,10,6.1,10,11.4s-3.7,12.7-14.5,12.7h-24.5V385
				h1.6c5.5,0,6.6-1.3,6.6-5.5V351.9l0.4-0.2L132,351.9z M137.9,362.1h7.4c6.3,0,9.8-2.7,9.8-8c0-4.7-2.9-9-11.1-9
				c-1.6,0-4.3,0.3-5.8,0.3v16.7H137.9z M137.9,377.6c0,5,2.1,6.8,7.7,6.8c8.7,0,11.4-5.5,11.4-10.8s-4-10.5-11.8-10.5h-7.1
				L137.9,377.6L137.9,377.6z"/>
			<path class="st0" d="M177.4,380.2c0,4,1.6,5,5.3,5h1.6v1.3h-18.9v-1.3h1c4,0,5.3-1,5.3-5.5v-28.5c0-4.3-1-5.3-5-5.3h-1.6v-1.3
				c1.6,0,5.8-0.3,8.4-0.6s4-0.3,8.4-0.3c12.4,0,17.9,5,17.9,11.8c0,5-3.4,9.2-9,10.8c2.4,1.8,4.4,4,7.7,6.8l5.3,5.3
				c4,4,8,5.8,13.2,6.1v1.7c-11.6,0.6-14.5-1.7-20.5-7.5l-4.4-4.4c-2.9-2.9-5.3-5-6.8-6.1c-1.6,0-2.7,0.3-4.4,0.3
				c-1.6,0-2.4,0-3.4-0.3L177.4,380.2L177.4,380.2L177.4,380.2z M177.4,367.6c1.6,0.3,2.7,0.3,4.3,0.3c7.4,0,12.4-3.1,12.4-11.4
				c0-6.3-2.9-11.1-13.2-11.1c-1.3,0-2.1,0-3.4,0.3L177.4,367.6L177.4,367.6z"/>
			<path class="st0" d="M228.8,386.3h-16.4V385c4.3-0.3,5-1.3,5-5.8v-28.5c0-3.7-1.3-4.7-5-4.7v-1.3h16.4v1.3c-4.3,0-5.8,1-5.8,5.5
				V380c0,4,1,5.3,5.8,5.3V386.3z"/>
			<path class="st0" d="M239.1,351.5c0-4.4-1.3-5.5-5.3-5.5h-1.3v-1.3c2.4-0.3,5.8-0.3,9.5-0.6s7.7-0.3,11.4-0.3
				c17.7,0,25.6,9,25.6,20.1c0,10-8,22.2-24.8,22.2h-21.6v-1.3h1c3.7,0,5.3-1,5.3-5v-28.2h0.2V351.5z M244.6,381.6
				c0,2.7,0.3,3.7,5.5,3.7c9,0,12.7-1.3,16.9-5.5c2.4-2.4,5.5-7.7,5.5-14.5c0-5-1.3-10.5-5.3-14.5c-3.1-3.1-8-5.5-17.1-5.5
				c-2.7,0-4.4,0.3-5.3,0.3L244.6,381.6L244.6,381.6L244.6,381.6L244.6,381.6z"/>
			<path class="st0" d="M323.2,383.4c-6.6,3.4-15.1,4.3-17.9,4.3c-14.8,0-21.4-11.4-21.4-21.1c0-10,7.1-22.6,23.2-22.6
				c7.1,0,11.8,2.4,13.2,2.4c0.6,0,1-0.3,1.6-0.6h1v10.8h-1.3c-1.8-8.4-7.4-11.1-13.7-11.1c-11.8,0-17.7,9.8-17.7,20.5
				c0,13.7,9.8,19.8,17.4,19.8c3.1,0,6.6-0.8,10.3-2.7v-8.4c0-4-1.3-5-5.3-5h-2.3v-1.3h18v1.3c-3.4,0.3-4.7,1.3-4.7,4.3v9.5
				L323.2,383.4L323.2,383.4z"/>
			<path class="st0" d="M359.3,371.2H358c-0.6-4.7-1.8-5.3-4.4-5.3h-11.4v14.2c0,3.1,1,3.7,3.7,3.7h10.3c4.7,0,6.1-1.8,7.7-7.7h1.3
				l-1,10h-35.6v-1.3h1.8c5.3,0,6.3-1.6,6.3-5.5v-28.2c0-3.7-0.8-5.3-5.3-5.3h-1.6v-1.3H362l0.6,9.2h-1.3c-0.8-5.8-2.7-6.8-5-6.8
				h-14v16.6h11.8c2.4,0,3.4-1,4-5h1.3v12.7H359.3z"/>
			<path class="st0" d="M408.1,387.6l-8.7-20.8l-8.4,20.8h-3.1l-14-35.6c-2.1-5-3.7-5.8-8-5.8h-0.6v-1.6h17.4v1.3h-1
				c-3.1,0-4.3,1.3-3.1,4.3l12.1,30.9l7.1-17.9l-5.5-13.2c-1.3-3.4-3.4-4-6.8-4v-1.3H413v1.3c-4.3,0-5.5,1-6.6,3.4l-4.3,10.5
				l8.7,20.8l11.8-31.1c1-2.7,0.3-3.7-4.7-4v-1h13.7v1.3c-4,0-5,0.8-7.1,6.1l-13.4,35.3h-2.9v0.3H408.1z M403.3,348.8
				c0.8-1.8,0.3-2.9-1.6-2.9h-2.9c-1.8,0-2.7,0.8-1.8,2.4l3.4,8L403.3,348.8z"/>
			<path class="st0" d="M434.5,367.8l-4,10.5c-0.6,1.3-1.3,3.1-1.3,4.3c0,1.8,1.8,2.4,5.5,2.4h1v1.3h-15.5V385c4.3,0,5-0.8,7.1-6.6
				l12.1-33.2l-0.6-1.6h5.8l14,37.2c1.3,3.4,2.7,4.3,6.1,4.3v1.3h-18.5v-1.3h1.8c3.7,0,5.3-0.6,5.3-2.4c0-1-0.6-2.1-0.8-2.7
				l-4.4-12.1L434.5,367.8L434.5,367.8z M441.3,349.4l-5.8,15.5h11.6L441.3,349.4z"/>
			<path class="st0" d="M481.3,380.2c0,3.7,1.3,5,5.3,5h2.4v1.3h-21.1v-1.3h2.4c4,0,5.3-1.3,5.3-5V347H464c-2.7,0-4,1.6-5,7.4h-1.3
				l1-10.8h1.3c0,0.6,1.1,1.2,2.1,1.1h32.2c1,0,1.8-0.3,2.1-1h1.3l1,10.8h-1.4c-1-5.8-2.1-7.4-5-7.4h-11.6L481.3,380.2L481.3,380.2
				L481.3,380.2z"/>
			<path class="st0" d="M529.9,371.2h-1.3c-0.6-4.7-1.8-5.3-4.4-5.3h-11.4v14.2c0,3.1,1,3.7,3.7,3.7h10.3c4.7,0,6.1-1.8,7.7-7.7h1.3
				l-1,10h-35.6v-1.3h1.8c5.3,0,6.3-1.6,6.3-5.5v-28.2c0-3.7-0.8-5.3-5.3-5.3h-1.6v-1.3h32.2l0.6,9.2h-1.3c-0.8-5.8-2.7-6.8-5-6.8
				h-14v16.6h11.8c2.4,0,3.4-1,4-5h1.3L529.9,371.2L529.9,371.2z"/>
			<path class="st0" d="M550.4,380.2c0,4,1.6,5,5.3,5h1.6v1.3h-18.9v-1.3h1c4,0,5.3-1,5.3-5.5v-28.5c0-4.3-1-5.3-5-5.3h-1.6v-1.3
				c1.6,0,5.8-0.3,8.4-0.6c2.7-0.3,4-0.3,8.4-0.3c12.4,0,17.9,5,17.9,11.8c0,5-3.4,9.2-9,10.8c2.4,1.8,4.4,4,7.7,6.8l5.3,5.3
				c4,4,8,6.3,13.2,6.8v1.3c-11.6,0.6-14.8-2.1-20.5-8l-4.4-4.4c-2.9-2.9-5.3-5-6.8-6.1c-1.6,0-2.7,0.3-4.4,0.3
				c-1.6,0-2.4,0-3.4-0.3L550.4,380.2L550.4,380.2L550.4,380.2z M550.4,367.6c1.6,0.3,2.7,0.3,4.3,0.3c7.4,0,12.4-3.1,12.4-11.4
				c0-6.3-2.9-11.1-13.2-11.1c-1.3,0-2.1,0-3.4,0.3L550.4,367.6L550.4,367.6z"/>
		</g>
		<g id="bottomline">
			<line class="st1" x1="224.9" y1="467" x2="490" y2="467"/>
		</g>
		<g id="middleLine">
			<line class="st1" x1="124.1" y1="407.1" x2="590.2" y2="407.1"/>
		</g>
		<g id="topLine">
			<line class="st1" x1="124.1" y1="326.9" x2="590.2" y2="326.9"/>
		</g>
	</g>
	<g id="cupola_2">
		<path class="st2" d="M26,405.7c0.4,0.6,0.3,1.7,0.1,2c-0.6,0.5-4.8,3.3-6.3,4.4l-0.4-1.7L26,405.7z"/>
		<path class="st2" d="M21.8,411.9l0.5,2.2c-1.5,1.3-2.2,3-2.4,4.9C18.8,416.4,18.9,414,21.8,411.9z"/>
		<path class="st2" d="M15.5,421c0-0.5-0.1-1.2-0.1-1.4c0.7-0.1,3.8,0,4.7,0c0,0.6,0,0.9,0,1.4C18.6,421,17.1,421,15.5,421z"/>
		<polygon class="st2" points="18.1,426 17.9,424 22,423.8 22,425.9 		"/>
		<path class="st2" d="M26.6,417.2c-0.3,0.2-4.4,1.8-5,2.1c1-1.9,1.8-5.3,1.8-5.6c0.9-0.9,1.6-1.3,3.1-1.9
			C26.5,412.1,26.7,416.4,26.6,417.2z"/>
		<path class="st2" d="M66.7,392.6c1.2-0.2,2-1.1,0.8-2.2c0.8-0.5,2-1.1,3-1.4c0.1,0.9,0,1.2-0.1,1.9c0.7-0.4,1.6,0.2,2.1,0.8
			c0.7,2.5-0.9,4.6-0.4,4.4c0,0,0.3,0.4,0.1,0.6c-2.3,1.3-5.8,3.6-8.5,4.7c0-5.9,0-21.4-0.1-23.2c0-0.1,1.6-1.8,1.6-1.9
			C65.2,381.1,65.2,392.5,66.7,392.6"/>
		<path class="st2" d="M63.3,376.7c-0.1-1.6-0.7-6,0-6.9c0.3-0.4,0.9-0.7,1-0.6c0.6,0.3,0.7,2.7,0.8,5.7L63.3,376.7z"/>
		<path class="st2" d="M64.9,368.3c-0.1,0-1.9,0.6-2.1,0.8c-0.2-3.5-1-7.2-2.8-9.4c0-0.5,0-0.6-0.1-1
			C63.2,359.8,64.6,364,64.9,368.3"/>
		<path class="st2" d="M52.6,353.4l2,1.7v1.4l-2.4-0.1c-1.3,0.2-1.8,0.3-2.7,0.4c-0.2-0.7-0.2-1.7-0.2-2.5
			C50.2,354.2,51.6,353.7,52.6,353.4"/>
		<path class="st2" d="M41.3,363.4c-0.8,1.8,0.9-2.6,4.4-3.2c2,0,2.7,2,3,2.5c0.9,0.1,1.1-1.3,1-2.2c0.3,2.6,0.1,4.6,0,7.3
			c-1.6,0.1-2.9,0.2-3.9,0.3c-0.5,0.5,0.5,0.6,0,1c-2.3,0.6-4.4,1.3-6.6,2C39.4,367.8,40.2,365.5,41.3,363.4"/>
		<path class="st2" d="M48,375.9c-3.5,0.4-5.9,0.5-8.4,2.3c-0.2-0.9-0.3-1.4,0-1.6c0.6-0.2,1-0.3,0.9-1.2c2.4-0.9,4.1-1.3,8.1-2.1
			c0-0.2,0-0.4,0-0.5c0.1,0,3.8-0.3,3.9-0.3c0.1,0.4-0.1,1.7,0.1,2.1C52.1,374.7,47.5,374.5,48,375.9"/>
		<path class="st2" d="M47.3,370.7c-0.9,0,0,0.8-0.1,1.3c-2.8,0.4-5.4,1-7.8,2c0.2-0.5-0.3-1-0.1-2.1c2.1-0.8,4.9-1.3,7.1-1.8
			c0,0-0.1-0.5,0.1-0.7c1.5-0.2,5.7-0.4,6.8-0.5c0.6-0.1,0.4,0.7,0.4,1.3C52.1,370.5,49.5,370.5,47.3,370.7"/>
		<path class="st2" d="M34.3,374.6c0.9-0.8,2.8-1.4,3.7-2.1c0,0.8,0.2,1.9-0.1,2c-0.8,0.6-2.7,1.2-3.7,2.3
			C34.2,375.6,33.8,374.8,34.3,374.6"/>
		<path class="st2" d="M38.4,375.3v2.4c-2.3,0.9-3,1.6-4.2,2.2c0.1-0.8,0.3-1.2,0.4-2.2C35.5,377.1,37.6,375.9,38.4,375.3"/>
		<path class="st2" d="M33.6,392.2c-0.2-0.1,1.3,0.9,1.3,0.9c1.3,0.2,0.9-9.5,0.6-10.9c-0.1-0.1-0.2-0.2-0.8-0.2
			c0.1-0.6-0.6-0.9-0.6-0.9c1.7-1,2.6-1.6,4.3-2.1c-0.4,4.7,1.1,16.8-2.9,16.7c-0.5,0-1.7-0.5-1.9-1.4
			C33.4,393.3,33.1,392.5,33.6,392.2"/>
		<path class="st2" d="M29.5,406c0.9-0.9,6.5-2.5,10.7-2.9l1.5,2.3c-4.4,0.5-7.6,1.1-11.2,3C30.2,407.7,29.4,406.2,29.5,406z"/>
		<path class="st2" d="M52.2,411c-12.4-0.6-17.2,1.5-22.3,4.1c-0.1-0.5-0.2-1,0.2-1.2c1.3-0.9,3.4-1.5,3.9-2.8
			c5.1-2,12.2-2.4,18.3-2.2C52.2,409,52.3,411.1,52.2,411"/>
		<path class="st2" d="M44.9,405.4c2.2,0,4.4-0.1,6.4-0.1c0,0.4,0,1.1,0,1.6c0,0,0.8,0,0.8,0.1c0,0.2,0,0.3,0,0.5
			c-2.8,0.1-5.4,0-7.9,0.1c-0.1-0.2-0.1-0.4,0-0.5c0-0.1,0.6,0,0.6-0.1C44.9,406.7,44.8,405.9,44.9,405.4z"/>
		<path class="st2" d="M53.9,403c-2.9,0-9.8-0.1-12.7,0c-0.1-0.3-0.2-1.6,0.3-1.6c2.8,0,10-0.2,12.6,0C54.1,401.7,54.3,403,53.9,403
			"/>
		<path class="st2" d="M54.8,367.6c-0.6,0-2.2,0.2-2.7,0.2c-0.3-1.9-0.2-4.6-0.1-6.6c1.9-0.9,5.5,2.3,6,3.8c0.9,0.8,0.8,1.8,0.8,2.8
			C56.4,367.3,56.4,367.6,54.8,367.6"/>
		<path class="st2" d="M67,401.6l-0.2-0.9c1.1-0.6,4.6-2.7,5.5-3.1c0,0.4,0.6,6.7,0.3,6.8c-0.1,0.1-1.7,1.2-3,1.8
			C70.9,402.9,67.5,401.6,67,401.6"/>
		<path class="st2" d="M73.1,412.4c-0.5,0.3-1.5,2-3,1.3c1.1-0.9,0.1-2.6,0.1-2.7c1.3-1,1.5-0.9,1.8-2.3c0.2-0.1,0.6-0.6,0.9-0.6
			C72.9,409.1,73.2,412.1,73.1,412.4"/>
		<path class="st2" d="M60.3,383.4c-2.5,2-1.5,0.7-0.2-1.3c0.4-0.1,0.9-0.4,1.1-0.4c0.9,0.7,1,2,1.1,4c0,0.5-0.4,4.4-3.1,5.3
			c-0.7-1.5-1.5-2.4-1.4-3.8c0.3-0.3,1.4,0.9,1.9,1.7c1-0.9,0.9-1.2,1.2-2.2C61.2,384.5,60.7,383.8,60.3,383.4"/>
		<path class="st2" d="M54.4,399.6c-1.8,0-12.2,0-15.4,0c0.1-4.5,0.2-8.6,0.2-11.6c0-2.7-0.7-7.9,1.4-9c-0.1-0.2-0.3-0.3-0.4-0.6
			c0.7-0.4,5.4-1.9,8.4-1.8c0.4-0.1-0.3-0.6,0.2-0.8c0.9-0.1,2.7-0.3,3.7,0v11.3l-0.8-1.5c-0.8,0-0.9,0-1.5,0l-0.1-8.6
			c0,0,1,0,1.4,0l0.4-0.6c-0.6-0.1-2,0-2.5,0c0,1.3-0.1,8,0,9.2h-2.5l0.4,3.5c0-0.6,0.5-2.4,0.5-2.4h3.8l-0.5,4.9H48l-0.7-2.5
			l-0.3,5.4c0,0,2.5,0,3.5,0v3.5c1,0.7,3-0.3,3.9,0.2C54.4,398.3,54.4,399.6,54.4,399.6 M41.8,392.2c1.5,1.9,3.3,0.4,4.7-0.6
			l0.4-2.5C45.9,390.6,43.8,393.2,41.8,392.2 M43.4,381c-3.3,2.7-3.3,7.2-1.4,9.4c1,0.9,2.7,0.6,3.7-1.2c0.9-2.3,0.9-3.9,0.2-6.2
			C45.5,381.8,44.4,380.5,43.4,381"/>
		<path class="st2" d="M60.3,383.4c-2.5,2-1.5,0.7-0.2-1.3c0.4-0.1,0.9-0.4,1.1-0.4c0.9,0.7,1,2,1.1,4c0,0.5-0.4,4.4-3.1,5.3
			c-0.7-1.5-1.5-2.4-1.4-3.8c0.3-0.3,1.4,0.9,1.9,1.7c1-0.9,0.9-1.2,1.2-2.2C61.2,384.5,60.7,383.8,60.3,383.4"/>
		<path class="st2" d="M56.9,449.4c0.2-2.3,8.2-1.1,9.3,1.2C63.3,450,59.8,449.3,56.9,449.4z"/>
		<path class="st2" d="M56.9,445.9c0.2-2.3,8.2-1.1,9.3,1.2C63.3,446.6,59.8,445.8,56.9,445.9z"/>
		<path class="st2" d="M56.9,442.5c0.2-2.3,8.2-1.1,9.3,1.2C63.3,443.1,59.8,442.3,56.9,442.5z"/>
		<path class="st2" d="M56.9,439c0.2-2.3,8.2-1.1,9.3,1.2C63.3,439.7,59.8,438.9,56.9,439z"/>
		<path class="st2" d="M56.9,435.6c0.2-2.3,8.2-1.1,9.3,1.2C63.3,436.2,59.8,435.4,56.9,435.6z"/>
		<path class="st2" d="M56.9,432.2c0.2-2.3,8.2-1.1,9.3,1.2C63.3,432.8,59.8,432,56.9,432.2z"/>
		<path class="st2" d="M56.9,428.7c0.2-2.3,8.2-1.1,9.3,1.2C63.3,429.3,59.8,428.5,56.9,428.7z"/>
		<path class="st2" d="M56.9,425.3c0.2-2.3,8.2-1.1,9.3,1.2C63.3,425.9,59.8,425.1,56.9,425.3z"/>
		<path class="st2" d="M56.9,421.8c0.2-2.3,8.2-1.1,9.3,1.2C63.3,422.5,59.8,421.6,56.9,421.8z"/>
		<path class="st2" d="M62.2,465.8l-0.1-12.4l-5.3-0.8c0,0.3-0.2,12.8,0,13.3L62.2,465.8L62.2,465.8z"/>
		<path class="st2" d="M42.7,426.3c-3.5,0.9-7.1,1.8-10,3.2V427c1.9-0.9,7.3-2.6,10-3C42.6,424.4,42.7,425.9,42.7,426.3 M32.6,431.2
			l0.1,2.3c2.6-0.9,6.5-2.4,10-3c0-0.4,0-2.4,0-2.4C40.2,428.4,35.6,429.9,32.6,431.2 M32.7,435.2v2.2c3-1.4,6.4-2.4,10-3V432
			C38.6,432.9,36.2,433.8,32.7,435.2 M32.6,439.1l0.1,2.2c3-1.4,6.3-2.2,9.9-2.8c0-0.3,0.1-2.2,0.1-2.5
			C38.5,437,35.8,437.8,32.6,439.1 M32.6,443.2l0.1,2.4c2.3-1.2,5.8-2.3,10-3c0-0.3,0-2.1,0-2.4C38.9,440.8,35.1,441.9,32.6,443.2
			 M32.7,447.5l-0.1,2.3c3-1.2,6.3-2.7,10-3.1v-2.4C39,444.9,35.9,446,32.7,447.5 M32.7,451.4c0,0.6,0,2.2,0,2.2
			c2.5-0.9,10-2.9,10-2.9l-0.1-2.4C39.1,449.2,35.7,450,32.7,451.4 M49.4,465.8c0-0.2,0-34.8-0.1-51.2c-0.5-0.4-1.8-0.6-2.9-0.1
			c0,0-1.7-1.7-2.4-2.5c-6,0.8-11.2,2.6-13.6,4.1c0.8,1.5,2.1,4.5-0.2,5.2v44.4L49.4,465.8L49.4,465.8z M36.3,420.8
			c0.9-0.3,5.3-1.5,6.3,2.1c-5.6,0.4-10,2.8-10,2.8C32.4,424.1,34.9,421.3,36.3,420.8"/>
		<path class="st2" d="M27.3,465.8h-8l0.4-34.2c0.3-0.7,0.2-0.9,1.5-1.4c0.7-0.1,1.1,0.1,1.5,0.2v-2l-4.3-0.1l-0.1-1.1h4.4
			c0-0.7,0-2.1,0-3.1c0-0.6-0.2-1.4,0.1-2.2c0.2-0.8,2-1.4,2.6-1.5c0.9-0.1,1.7,0,2.1,0.5C27.2,435.7,27.3,450.7,27.3,465.8
			 M22.9,461.8c0-0.8,0.6-1.4,0.9-1.9s0.7-30.1,0.5-30.7c-0.4,0.4-1.3,0.8-1.5,1.5C22.7,430.7,22.5,461.4,22.9,461.8"/>
		<path class="st2" d="M55.9,349.9c-0.8-0.7-1.5-0.9-2.1-1.1c0-1-0.1-2.6-0.1-4.3c4.4,0.9,7.6,1.5,8.1,1.6c0.7,0.1,1.5-0.6,0.9-0.9
			s-3.3-0.8-7.9-1.6l6.2-4.4c0,0,0.6-1.6-0.7-1.1c-0.6,0.2-2.8,2.1-6.6,5c-0.1-2.3-0.1-4.8-0.2-7.1c0.7,0.1,1.6,0.1,2.2-0.6
			c0.6-0.6,0.6-2.1-0.1-2.2l1.3-0.6l0.1,1.1c1.5-1.7,3.5-3.1,3.5-3.1s-2.2,0.9-3.6,0.7l0.1,0.9l-1.5,0.4c0.9-1.3-0.7-1.9-1.1-1.8
			c-0.5,0.1-0.8,0.4-1,0.6c0-1.5-0.1-2.6-0.2-2.7c-0.2-1-0.7-0.7-0.8,0c0,0.2-0.1,1.7-0.1,3.8c-0.2-0.2-0.5-0.2-1-0.1
			c-1.1,0.2-5.4,4.5-6.7,5.1c0.9,0.6,1.2,0.5,0.4,1.8c0.7-0.3,2.7-1,5.1-1.4c1.2-0.2,1.6-0.6,2-0.8c0.1,0,0.1-0.1,0.1-0.1
			c0,2.1-0.1,4.2-0.2,6.1c-4.7-0.9-8.6-1.6-9.2-1.7c-1.2-0.1,0,0.6,0,0.6s4.4,1.1,9.2,2.2c-3.5,2.8-5.6,4.6-6.1,5
			c-1,0.9,0.3,0.4,0.3,0.4l5.7-4.1v3.2c-1.4,0.4-1.3,0.5-2.3,1.5c0,0-0.7,3.5-0.4,3.3c1.7-0.7,1.4-1.1,3.1-0.9
			c0.2,0,1.2-2.1,1.9-2.2C55.3,350.5,55.9,349.9,55.9,349.9"/>
		<path class="st3" d="M27.5,394.2c0.6-0.6,1.9-1.9,2.5-2.4c0,0.7,0.1,1.8,0.1,2.5c-1.4,0-2.2,2.4-2.2,4.6c0,0.1,0.7,4.4,0.2,5.6
			c0-0.1-1.9-0.8-1.9-0.8c-0.2,0.1-0.4,0.3-0.5,0.4C24.8,400.9,25.8,397.7,27.5,394.2z"/>
		<path class="st2" d="M70.5,465.8c-0.2-15.2-0.3-30.8-0.4-44.2c0.5-0.4,0.5-1.2,0.9-1.6v-2c0.3-0.6,1.6-0.9,2.4-0.4
			c0.4,16,0.6,32.5,1.2,48.2H70.5z"/>
		<path class="st4" d="M82.7,406.8c0.2-0.3,0.7-2.4-0.9-2.9c-0.1-1.4-0.3-3-0.4-4.5c0.3,0,1.5-0.1,1.7-0.1c0.3,0.3,0.2,1,0.2,1.6
			C86.5,401.3,87.4,407.2,82.7,406.8"/>
		<path class="st4" d="M82.9,408c0.9,0.1,2.1-0.1,2.7-0.1c-0.1,0.9,0,3.1,0.2,3.9C83.1,410.7,83.2,409.1,82.9,408"/>
		<path class="st4" d="M58.6,356.8c0.7-0.9,0.2-1.9,0.9-2.7c-0.2-1-1.6-1.4-2.6-2.4c-0.4-0.4-1.1-1.2-1.6-1.6"/>
		<path class="st4" d="M74,391.4c-0.2,0-0.3-1.4-0.4-1.6c0-0.1-0.4-4.2,0.3-7.5l0.1-0.2c0,0,2-1.5,2.5-2.2c-0.1-0.4-0.2-0.9-0.4-1.3
			c-0.3-1-0.6-2.3-0.9-3.1c-0.6,0-1.2,0.1-1.6,0.3l-0.5,0.1c0,0-1-2.4-1.4-3.5c-0.2-0.8-0.7-2.4-0.9-2.9c-1.4-3.4-4.4-6.1-6.8-7.7
			c-0.2-0.2-0.3-0.3-0.3-0.3c0.1,0,1.3,0.6,1.6,0.7c2,1.4,4.4,3.9,5.8,6.2c0.4,0.7,1,2.5,1.2,3.2c0.2,1,0.9,3,1,3.4
			c0.6-0.2,1.4-0.4,2.3-0.5h0.3l0.1,0.2c0.5,0.9,0.9,2.3,1.1,3.5c0.1,0.6,0.5,1.6,0.5,1.6s-2.1,1.6-3.2,2.4
			C73.6,386,74.1,391.3,74,391.4L74,391.4z"/>
		<path class="st4" d="M89.7,465.8c-0.6-10.4-1.2-23-1.4-36.5v-0.4l0.4-0.1c1.2-0.3,2-1,2.2-2.1c0.1-0.9-0.4-1.8-1.1-2.3l-0.2-0.1
			l-0.5-2.4l0.4-0.1c0.1,0,1.3-0.2,2.5-0.3l1.1-2.2c0-0.8,0.2-5.1,0.4-7.5c-0.7,0-5.2,0.2-6.2,0.2c-0.3,0-0.5-0.2-0.5-0.5
			s7.6-0.6,7.6-0.6v0.5c-0.1,2.7-0.4,8.1-0.4,8.1l-1.7,2.6l-2.7,0.1l0.6,1.6c1,0.7,1.9,1.7,1.7,3c-0.2,1.3-1.5,2.2-2.9,2.6
			c0.2,13.4,0.9,26,1.5,36.4C90.3,466,89.7,466.1,89.7,465.8"/>
		<path class="st4" d="M77.6,401.4c-0.4,0-0.8-0.1-1.1-0.2c-1-0.4-1.9-1.2-2.2-2.3l-0.1-0.2l0.1-0.2c0.5-0.9,1.7-3.9,0.6-6.1
			c-0.3-0.3-0.6-0.5-0.9-0.7c-0.4-0.2,0.5-0.4,1.3,0.3c2.4,2.5,0.5,4.9-0.7,6.5c0.3,0.7,1.5,1.3,2.2,1.6c0.4,0.2,0.9,0.3,1.6,0
			c0-0.2-0.3-2.5-0.3-2.5s2,0,2.8,0.1c0.9,0.1,2.2,0.4,2.2,0.4c-0.9-0.1-3.6,0.1-4.4,0.1c0,0.2,0.3,1.8,0.3,2.1v0.3l-0.2,0.1
			C78.5,401.3,78.2,401.4,77.6,401.4"/>
	</g>
</g>
</svg>
